<?xml version="1.0" encoding="UTF-8"?><svg id="Layer_2" xmlns="http://www.w3.org/2000/svg" viewBox="0 0 610.02 108.67"><defs><style>.cls-1{fill:#1c234c;}.cls-2{fill:#76ad1e;}</style></defs><g id="Layer_1-2"><g><polygon class="cls-2" points="100.59 0 72.43 0 72.43 0 72.43 28.17 82.51 28.17 82.51 46.3 64.38 46.3 64.38 36.21 36.21 36.21 36.21 36.21 36.21 64.38 46.3 64.38 46.3 72.43 36.21 72.43 36.21 72.43 36.21 82.51 28.17 82.51 28.17 72.43 0 72.43 0 72.43 0 100.59 28.17 100.59 28.17 90.51 36.21 90.51 36.21 100.59 64.38 100.59 64.38 100.59 64.38 72.43 54.3 72.43 54.3 64.38 64.38 64.38 64.38 64.38 64.38 54.3 90.51 54.3 90.51 28.17 100.59 28.17 100.59 0"/><g><path class="cls-1" d="M138.81,88.42V19.52h32.23c14.98,0,23.14,10.12,23.14,22.21s-8.26,22.11-23.14,22.11h-17.56v24.59h-14.67Zm40.39-46.69c0-5.79-4.44-9.3-10.23-9.3h-15.5v18.49h15.5c5.78,0,10.23-3.51,10.23-9.19Z"/><path class="cls-1" d="M196.77,63.42c0-14.15,9.92-26.14,26.34-26.14s26.45,11.98,26.45,26.14-9.92,26.24-26.45,26.24-26.34-12.09-26.34-26.24Zm39.15,0c0-7.75-4.54-14.46-12.81-14.46s-12.71,6.71-12.71,14.46,4.54,14.57,12.71,14.57,12.81-6.71,12.81-14.57Z"/><path class="cls-1" d="M257.36,75.92V19.52h13.12v52.89c0,3.2,1.65,5.58,4.55,5.58,1.96,0,3.82-.72,4.54-1.55l2.79,10.02c-1.96,1.76-5.58,3.2-10.95,3.2-9.19,0-14.05-4.75-14.05-13.74Z"/><path class="cls-1" d="M284.84,101.23l5.89-9.4c3.62,4.34,9.71,6.09,14.98,6.09,8.47,0,13.43-5.79,13.43-12.81v-5.17c-3.41,3.72-9.4,7.54-17.56,7.54-10.95,0-16.12-5.99-16.12-15.7V38.53h13.12v28.1c0,6.92,3.62,9.19,9.19,9.19,5.06,0,9.09-2.79,11.36-5.68v-31.61h13.12v46.59c0,14.98-10.64,23.55-26.55,23.55-8.37,0-15.08-2.38-20.87-7.44Z"/><path class="cls-1" d="M340.25,63.42c0-14.46,10.74-26.14,25.83-26.14s25,11.16,25,27.38v3.1h-37.08c.93,6.09,5.89,11.16,14.36,11.16,4.24,0,10.02-1.76,13.22-4.86l5.89,8.68c-4.96,4.54-12.81,6.92-20.56,6.92-15.19,0-26.65-10.23-26.65-26.24Zm25.83-15.39c-8.16,0-11.67,5.68-12.19,10.64h24.59c-.41-4.75-3.72-10.64-12.4-10.64Z"/><path class="cls-1" d="M394.27,81.92l5.68-9.5c3.72,3.51,11.05,6.92,17.25,6.92,5.68,0,8.37-2.17,8.37-5.27,0-8.16-29.54-1.45-29.54-21.07,0-8.37,7.23-15.7,20.45-15.7,8.37,0,15.08,2.89,20.04,6.82l-5.27,9.3c-3-3.1-8.68-5.79-14.77-5.79-4.75,0-7.85,2.07-7.85,4.86,0,7.33,29.65,1.14,29.65,21.28,0,9.19-7.85,15.91-21.69,15.91-8.68,0-17.04-2.89-22.31-7.75Z"/><path class="cls-1" d="M449.43,75.92v-25.93h-8.26v-11.47h8.26v-13.64h13.12v13.64h10.12v11.47h-10.12v22.42c0,3.2,1.65,5.58,4.54,5.58,1.96,0,3.82-.72,4.55-1.55l2.79,10.02c-1.96,1.76-5.48,3.2-10.95,3.2-9.19,0-14.05-4.75-14.05-13.74Z"/><path class="cls-1" d="M476.43,63.42c0-14.46,10.74-26.14,25.83-26.14s25,11.16,25,27.38v3.1h-37.08c.93,6.09,5.89,11.16,14.36,11.16,4.24,0,10.02-1.76,13.22-4.86l5.89,8.68c-4.96,4.54-12.81,6.92-20.56,6.92-15.19,0-26.65-10.23-26.65-26.24Zm25.83-15.39c-8.16,0-11.67,5.68-12.19,10.64h24.59c-.41-4.75-3.72-10.64-12.4-10.64Z"/><path class="cls-1" d="M596.8,88.42v-31.51c0-4.65-2.07-7.95-7.44-7.95-4.65,0-8.47,3.1-10.33,5.78v33.68h-13.22v-31.51c0-4.65-2.07-7.95-7.44-7.95-4.55,0-8.37,3.1-10.33,5.78v33.68h-13.12V38.53h13.12v6.4c2.17-2.89,8.68-7.64,16.32-7.64s12.09,3.41,13.84,8.99c2.89-4.44,9.5-8.99,17.15-8.99,9.19,0,14.67,4.86,14.67,15.08v36.05h-13.22Z"/></g></g></g></svg>